<svg width="54" height="34" viewBox="0 0 54 34" fill="none" xmlns="http://www.w3.org/2000/svg">
<g clip-path="url(#clip0_3_366)">
<path d="M26.6992 33.4961C42.4805 33.4961 53.3789 20.7422 53.3789 16.7578C53.3789 12.7539 42.4609 0.0195312 26.6992 0.0195312C11.1328 0.0195312 0 12.7539 0 16.7578C0 20.7422 11.1133 33.4961 26.6992 33.4961ZM26.6992 30.4102C13.8281 30.4102 3.41797 19.5117 3.41797 16.7578C3.41797 14.4336 13.8281 3.10547 26.6992 3.10547C39.5117 3.10547 49.9609 14.4336 49.9609 16.7578C49.9609 19.5117 39.5117 30.4102 26.6992 30.4102ZM26.6992 27.6953C32.7734 27.6953 37.6562 22.7148 37.6562 16.7578C37.6562 10.6445 32.7734 5.82031 26.6992 5.82031C20.5859 5.82031 15.7031 10.6445 15.7031 16.7578C15.7031 22.7148 20.5859 27.6953 26.6992 27.6953ZM26.6992 20.3906C24.668 20.3906 23.0273 18.75 23.0273 16.7578C23.0273 14.7461 24.668 13.125 26.6992 13.125C28.7109 13.125 30.3516 14.7461 30.3516 16.7578C30.3516 18.75 28.7109 20.3906 26.6992 20.3906Z" fill="white"/>
</g>
<defs>
<clipPath id="clip0_3_366">
<rect width="53.75" height="33.4961" fill="white"/>
</clipPath>
</defs>
</svg>
