<svg width="73" height="55" viewBox="0 0 73 55" fill="none" xmlns="http://www.w3.org/2000/svg">
<g clip-path="url(#clip0_3_357)">
<path d="M27.6172 42.6758C27.6172 45.7812 25.1172 48.3008 21.9922 48.3008C18.8867 48.3008 16.3672 45.7617 16.3672 42.6758C16.3672 39.5703 18.8867 37.0508 21.9922 37.0508C25.0977 37.0508 27.6172 39.5703 27.6172 42.6758ZM55.7227 42.6562C55.7227 45.7812 53.2227 48.3008 50.0977 48.3008C46.9922 48.3008 44.4727 45.7617 44.4727 42.6562C44.4727 39.5508 46.9922 37.0312 50.0977 37.0312C53.2031 37.0312 55.7227 39.5508 55.7227 42.6562ZM44.1211 12.5586V37.5195C42.8711 38.8477 42.207 40.6641 42.207 42.6562C42.207 42.9297 42.2266 43.2031 42.2656 43.4766H29.8242C29.8633 43.2227 29.8828 42.9492 29.8828 42.6758C29.8828 38.3203 26.3477 34.7656 21.9922 34.7656C17.6367 34.7656 14.082 38.3203 14.082 42.6758C14.082 42.9492 14.1016 43.2227 14.1406 43.4766H12.8125C9.31641 43.4766 7.5 41.6602 7.5 38.1836V24.0797C9.05829 24.7868 10.7857 25.1758 12.5977 25.1758C19.4727 25.1758 25.1953 19.4531 25.1953 12.5781C25.1953 10.6727 24.7637 8.86222 23.981 7.24609H38.8086C42.3047 7.24609 44.1211 9.08203 44.1211 12.5586ZM56.3477 19.7656L62.9883 27.2656C64.0625 28.4766 64.375 29.375 64.375 31.2891V38.1836C64.375 41.6406 62.5781 43.4766 59.1406 43.4766H57.9492C57.9883 43.2031 58.0078 42.9297 58.0078 42.6562C58.0078 38.3008 54.375 34.7461 50.0195 34.7461C48.8477 34.7461 47.7344 35.0586 46.7969 35.5859V18.0273H51.9922C53.9062 18.0273 55.1953 18.4766 56.3477 19.7656ZM50.0781 21.6406V28.7109C50.0781 29.8242 50.7617 30.4883 51.8555 30.4883H60.6055C60.5273 30.0391 60.3125 29.668 60 29.3164L54.043 22.6367C53.2812 21.7969 52.6953 21.6406 51.7969 21.6406H50.0781Z" fill="#55BEF0" fill-opacity="0.5"/>
<path d="M22.5195 12.5781C22.5195 18.0078 17.9688 22.5 12.5977 22.5C7.16797 22.5 2.67578 18.0469 2.67578 12.5781C2.67578 7.14844 7.16797 2.65625 12.5977 2.65625C18.0469 2.65625 22.5195 7.12891 22.5195 12.5781ZM11.4844 6.81641V11.6992H7.96875C7.30469 11.6992 6.75781 12.2461 6.75781 12.8906C6.75781 13.5547 7.28516 14.1016 7.96875 14.1016H12.6953C13.3789 14.1016 13.9062 13.5742 13.9062 12.8906V6.81641C13.9062 6.15234 13.3594 5.64453 12.6953 5.64453C12.0312 5.64453 11.4844 6.15234 11.4844 6.81641Z" fill="#55BEF0"/>
</g>
<defs>
<clipPath id="clip0_3_357">
<rect width="72.2461" height="54.9023" fill="white"/>
</clipPath>
</defs>
</svg>
