<svg width="37" height="36" viewBox="0 0 37 36" fill="none" xmlns="http://www.w3.org/2000/svg">
<g clip-path="url(#clip0_3_347)">
<path d="M6.13281 35.9961H29.8242C33.9258 35.9961 35.957 33.9648 35.957 29.9414V6.09375C35.957 2.07031 33.9258 0.0390625 29.8242 0.0390625H6.13281C2.05078 0.0390625 0 2.05078 0 6.09375V29.9414C0 33.9844 2.05078 35.9961 6.13281 35.9961Z" fill="#55BEF0" fill-opacity="0.18"/>
<path d="M4.82422 33.0664C6.32812 28.1055 11.6016 24.5312 18.0078 24.5312C24.3945 24.5312 29.668 28.1055 31.1719 33.0664H4.82422ZM17.9883 21.2695C14.2578 21.2305 11.3281 18.125 11.3086 13.9453C11.2891 10.0195 14.2578 6.77734 17.9883 6.77734C21.7188 6.77734 24.668 10.0195 24.668 13.9453C24.668 18.125 21.7188 21.3086 17.9883 21.2695Z" fill="#55BEF0"/>
</g>
<defs>
<clipPath id="clip0_3_347">
<rect width="36.3281" height="35.9961" fill="white"/>
</clipPath>
</defs>
</svg>
